<svg width="55" height="53" viewBox="0 0 55 53" fill="none" xmlns="http://www.w3.org/2000/svg">
<path d="M31.6959 36.9927C30.4941 42.1633 28.9782 47.2451 27.2502 53C25.0274 47.4448 24.2656 42.1633 22.6004 37.0371C17.3615 39.3672 12.9552 43.1027 6.99363 45.3736C10.0726 40.5729 12.8609 36.2234 15.7435 31.7334C15.5078 30.8976 14.8167 30.5647 13.7092 30.2096C10.5517 29.2184 7.26853 28.8264 4.05606 28.0941C1.33057 27.4727 -0.405261 26.7256 0.081715 26.4371C1.39341 25.6604 2.88575 25.3128 4.45664 25.0391C7.93616 24.4325 11.3528 23.5079 14.7774 22.672C15.2644 22.5537 15.6885 22.1986 16.1048 21.9693C12.9394 17.1612 10.049 12.7821 7.04861 8.22554C8.93368 7.88528 10.3867 9.02443 11.4157 9.73454C14.9109 12.1312 18.7203 14.01 22.5533 16.2736C23.9828 11.0438 25.3966 5.86588 26.9989 0C29.2139 5.73273 30.0543 11.0586 31.7666 16.1404C36.9034 13.655 41.5925 10.3929 47.1456 8.35869C44.2787 12.7082 41.4118 17.0576 38.5371 21.4219C38.8198 23.3673 41.2312 22.3391 42.0323 23.5893C45.072 23.4635 47.7503 25.0169 50.7743 25.2166C52.1645 25.3054 53.9868 25.5643 55 26.9845C49.4783 28.3678 43.8388 29.3368 38.1758 31.1786C41.3097 35.9424 44.2237 40.388 47.5461 45.4476C41.3882 43.1249 36.9505 39.4412 31.6802 37.0001L31.6959 36.9927Z" fill="black"/>
</svg>
