<svg width="54" height="50" viewBox="0 0 54 50" fill="none" xmlns="http://www.w3.org/2000/svg">
<path d="M27.8713 50C27.2846 48.3658 26.9032 46.7479 26.5805 45.223C26.2636 43.7254 25.5302 42.1841 25.8353 40.5662C24.6383 39.4731 25.8646 37.746 24.6617 36.6528C25.0079 35.2044 23.8696 33.9746 24.0046 32.5044C24.0691 31.8266 23.3239 31.1161 23.4765 30.2798C23.5762 29.7333 22.9601 29.2687 22.7019 29.2687C21.6282 29.2851 20.836 28.3778 19.7623 28.58C18.6826 28.7822 17.7672 28.2739 16.7756 28.0444C15.7957 27.8203 14.6574 28.4324 13.7655 27.5087C13.5895 27.3284 13.0145 27.4814 12.6272 27.4814C11.5006 27.4869 10.4327 27.4268 9.32956 26.9895C8.3438 26.6014 7.02945 27.301 6.07889 26.3883C3.96653 26.7272 2.08302 25.6122 0 25.6012C8.04455 24.3714 15.9894 22.8465 23.8755 21.3216C24.5913 18.8839 24.2921 16.2986 25.2368 13.9047C25.3013 13.7462 25.272 13.5385 25.2368 13.3636C24.8202 10.9368 25.671 8.58658 25.9702 6.23087C26.2225 4.24683 25.8998 2.03323 27.3139 0C29.1094 7.26388 31.21 14.2654 32.9821 21.3271C40.0115 22.2726 46.9177 23.6609 54 24.3441C52.8969 25.552 51.2598 25.3443 49.9513 25.716C48.8717 26.0221 47.6981 26.6725 46.4249 26.3828C45.574 27.4213 43.937 26.3992 43.0979 27.4759C40.8389 27.4377 38.7324 28.2466 36.5379 28.498C35.734 28.5909 35.1824 29.0173 34.449 29.132C32.6124 29.4217 31.7088 30.0503 31.7381 31.444C31.7909 34.0184 30.4648 36.3631 30.5177 38.9101C29.2209 40.0853 30.6702 41.9272 29.3441 43.0969C29.749 44.6382 28.6459 45.9827 28.7046 47.5131C28.7339 48.2947 28.1882 49.0927 27.8596 49.9891L27.8713 50Z" fill="#273AAA"/>
</svg>
