<svg width="215" height="224" viewBox="0 0 215 224" fill="none" xmlns="http://www.w3.org/2000/svg">
<path d="M188.1 41.6193C190.129 40.7382 191.698 40.0459 193.861 39.081C192.292 54.0799 185.094 67.8411 187.621 82.777C194.206 85.0006 197.153 83.8259 198.417 78.5605C199.144 75.5398 197.804 72.8127 197.192 69.9178C195.124 60.0374 197.345 51.0801 205.212 41.5983C204.216 52.2758 208.255 59.8277 211.624 67.5264C213.27 71.3233 214.342 75.0783 214.591 79.2528C215.05 86.9515 212.524 93.0559 206.073 97.4612C198.57 102.58 194.263 109.104 193.746 118.565C193.402 125.13 191.258 131.906 181.477 133.312C183.659 129.494 185.516 126.242 187.2 123.284C186.779 119.781 184.941 118.082 181.974 118.103C179.065 118.124 176.653 119.928 176.385 122.676C176.022 126.62 173.706 130.249 175.16 134.591C176.845 139.626 175.868 144.765 173.916 149.758C169.916 159.995 162.355 161.107 154.775 152.359C151.215 155.779 150.985 160.163 151.502 164.505C152.555 173.4 148.746 179.21 140.974 183.469C135.136 186.678 129.394 190.37 126.925 196.852C123.058 196.726 125.566 192.657 121.201 192.342C111.956 199.516 108.568 210.593 107.803 222.885C100.912 224.857 98.9787 224.333 97.945 219.214C97.1602 215.271 97.6005 211.096 97.0837 207.068C96.0118 198.614 94.6719 190.202 86.9963 185.084C82.8427 185.147 81.7708 188.189 79.7227 191.461C78.7848 190.098 78.0766 189.238 77.5789 188.294C76.7176 186.657 75.6648 185.021 75.2437 183.259C72.6788 172.393 66.611 164.568 55.7006 160.771C48.5418 158.296 46.934 152.401 47.3359 145.311C34.7411 144.807 31.2383 136.542 29.7644 126.83C29.2093 123.18 29.0371 119.55 27.812 115.963C25.7448 109.985 22.4142 106.02 15.8297 104.09C4.23019 100.692 -1.18675 92.2798 0.957055 80.6373C2.0481 74.7846 2.71804 69.2465 0 62.9323C8.24982 65.1769 11.4847 71.7219 16.9973 75.2041C20.0025 74.0714 19.2942 72.0995 18.8348 69.75C17.8778 64.7574 14.4515 61.2332 11.8292 57.2474C3.80908 45.0386 4.80441 32.9765 15.5043 21.2711C13.3413 26.1379 13.1882 31.2144 13.705 36.249C14.2601 41.5983 17.227 44.7239 20.9595 44.5981C25.2663 44.4512 29.0371 40.8431 29.4773 35.8505C29.8027 32.1794 29.7836 28.4874 28.5777 24.8583C27.8886 22.7815 27.6589 20.5369 27.4101 18.3553C26.9507 13.992 28.0991 10.216 32.0613 7.78263C36.3107 5.18143 38.933 8.81053 41.785 10.5307C46.8766 8.76857 43.814 2.81098 47.0488 0.50346C50.3411 -0.545412 51.5661 1.19572 52.4658 3.41933C53.576 6.14639 54.399 9.0203 55.8346 11.5586C57.1171 13.8241 59.1652 15.7121 62.1512 15.5443C65.4434 15.3555 65.9794 12.4186 67.147 10.1741C68.6783 7.17429 67.013 3.48226 69.5588 0C73.1382 2.22361 74.4015 5.3912 74.3823 9.14617C74.344 14.6842 74.2675 20.1383 73.2147 25.6974C71.4729 34.8645 73.6167 43.1296 82.4216 48.353C86.6135 45.6889 85.2928 42.6891 84.5271 39.2908C82.5364 30.5432 84.0486 27.4595 92.0113 22.6556C91.4945 30.5851 93.6191 37.5496 97.7345 43.7589C100.319 47.6398 98.4044 50.7654 96.8348 54.1008C94.5188 59.0305 90.6906 63.6456 93.4852 70.1696C98.8255 73.3581 102.156 70.2744 104.759 65.5335C106.807 67.7781 108.453 69.9808 112.32 68.1347C111.861 62.0303 114.904 57.0377 119.077 52.045C124.551 45.5001 124.819 37.0671 124.264 28.4035C127.384 29.6831 126.006 31.9906 126.484 33.6059C127.02 35.347 127.346 37.172 127.958 38.8922C128.724 41.0319 129.949 42.8779 132.112 43.9268C140.036 40.5074 141.127 38.6614 139.787 30.9417C138.665 24.4247 141.408 19.551 148.018 16.3205C150.487 22.2361 146.965 28.9908 150.64 34.6757C151.444 35.9134 152.133 37.2559 155.005 37.6965C160.919 36.0602 164.767 31.8018 164.786 24.5856C164.786 19.8027 165.417 14.9989 163.561 10.2999C162.317 7.17429 161.953 3.85985 163.695 0.776165C166.279 -0.566391 167.982 0.16782 169.341 2.47534C171.083 5.41218 173.667 7.38406 176.634 9.18812C183.41 13.3417 186.147 19.2363 183.774 27.2077C182.242 32.3472 181.898 37.4867 187.985 41.5353L188.1 41.6193ZM71.2049 133.207C73.3296 139.878 71.2049 147.367 75.6456 153.534C79.8184 159.324 82.479 165.617 81.4071 174.092C87.6854 173.043 92.5281 174.847 97.4856 176.315C103.439 178.078 102.501 185.546 107.516 188.461C109.966 179.147 112.588 170.756 122.159 167.358C123.594 167.966 124.628 168.365 125.642 168.826C127.001 169.435 128.303 170.253 129.719 170.714C134.083 172.099 137.069 170.421 137.854 165.911C138.294 163.393 137.988 160.729 138.084 158.149C138.294 152.632 137.414 147.094 139.347 141.64C141.97 134.193 144.439 126.662 143.29 118.313C147.769 119.362 148.822 121.9 149.128 125.068C149.415 128.004 149.645 130.962 150.334 133.815C150.851 135.934 151.866 138.304 154.698 138.095C157.512 137.885 158.201 135.682 158.182 133.291C158.144 129.557 158.565 126.012 160.345 122.55C163.044 117.306 164.728 111.663 165.762 105.118C172.155 105.81 177.093 102.852 179.448 97.5661C183.908 87.5599 183.544 77.3858 178.797 67.0439C174.854 69.708 176.5 72.9596 175.983 75.6866C174.854 81.875 173.897 82.4204 165.953 81.0149C161.283 70.9877 170.7 62.0932 168.537 50.9123C161.589 60.3521 153.473 52.4017 145.759 53.8701C143.807 57.5831 144.783 62.6387 139.634 65.0091C134.945 67.1698 131.327 62.3869 126.561 64.2959C126.561 68.785 126.484 73.1903 126.58 77.6165C126.676 81.0778 125.757 84.1825 124.034 87.1403C119.479 94.839 112.55 95.3005 106.999 88.0843C105.219 85.7768 104.07 83.0078 102.424 80.0919C97.4091 82.3365 92.4324 83.7839 87.4557 81.6023C82.3833 77.176 84.6228 70.9667 82.8618 64.8413C81.1391 67.5264 81.5028 71.0716 78.0574 71.0296C74.5737 70.9877 72.5831 68.5123 71.3197 65.8482C70.4201 63.9602 70.4393 61.5478 70.3244 59.3662C70.133 55.6741 70.5158 51.9192 70.0564 48.2481C69.1185 40.6962 60.2753 36.7105 55.2412 42.6052C54.0545 43.9897 52.9252 45.542 50.456 45.8357C45.2496 41.7871 49.3458 35.305 46.532 29.746C42.187 36.6056 40.7131 42.773 46.3598 49.1502C47.336 50.262 48.427 51.3947 49.0012 52.7163C50.0348 55.1497 50.7048 57.9607 47.7953 59.555C45.5941 60.7507 43.3355 59.7228 41.8042 57.8558C39.9283 55.5693 38.4545 52.9471 36.5021 50.7235C34.5688 48.5208 31.7934 48.2271 29.2859 49.5068C26.9507 50.7235 27.1995 53.2198 27.544 55.4434C27.6589 56.1566 27.8886 56.8908 28.2331 57.5411C33.7649 67.862 30.2812 76.7565 23.8307 85.2104C23.1033 86.1753 23.0459 87.2242 24.6155 88.9863C26.2233 91.189 28.5011 85.525 30.8172 88.1682C29.5347 94.7971 29.4964 94.818 32.4633 97.9437C33.7458 99.2862 35.1239 100.608 36.6552 101.657C42.2827 105.433 43.9097 110.761 43.1058 117.117C42.8186 119.32 42.9335 121.648 42.1679 123.662C40.3686 128.424 42.1679 131.403 46.0344 133.647C56.0643 132.221 58.3421 124.942 59.6437 116.76C63.3571 120.201 63.759 124.27 63.0317 128.34C62.4574 131.571 61.1367 134.717 59.9499 137.801C58.3612 141.933 57.9401 145.667 62.1703 148.332C70.7647 146.465 70.8604 140.003 71.2049 133.186V133.207Z" fill="#FC4D5C"/>
</svg>
