<svg width="25" height="26" viewBox="0 0 25 26" fill="none" xmlns="http://www.w3.org/2000/svg">
<path d="M19.1406 0.5H5.85938C2.62333 0.5 0 3.12333 0 6.35938V19.6406C0 22.8767 2.62333 25.5 5.85938 25.5H19.1406C22.3767 25.5 25 22.8767 25 19.6406V6.35938C25 3.12333 22.3767 0.5 19.1406 0.5Z" fill="url(#paint0_radial_97_365)"/>
<path d="M19.1406 0.5H5.85938C2.62333 0.5 0 3.12333 0 6.35938V19.6406C0 22.8767 2.62333 25.5 5.85938 25.5H19.1406C22.3767 25.5 25 22.8767 25 19.6406V6.35938C25 3.12333 22.3767 0.5 19.1406 0.5Z" fill="url(#paint1_radial_97_365)"/>
<path d="M12.5009 3.23438C9.84873 3.23438 9.51582 3.246 8.47422 3.29336C7.43457 3.34102 6.7249 3.50557 6.104 3.74707C5.46162 3.99648 4.9168 4.33018 4.37402 4.87314C3.83076 5.41602 3.49707 5.96084 3.24688 6.60293C3.00469 7.22402 2.83994 7.93398 2.79316 8.97314C2.74658 10.0148 2.73438 10.3479 2.73438 13.0001C2.73438 15.6523 2.74609 15.9842 2.79336 17.0258C2.84121 18.0654 3.00576 18.7751 3.24707 19.396C3.49668 20.0384 3.83037 20.5832 4.37334 21.126C4.91602 21.6692 5.46084 22.0037 6.10273 22.2531C6.72412 22.4946 7.43389 22.6592 8.47334 22.7068C9.51504 22.7542 9.84766 22.7658 12.4997 22.7658C15.1521 22.7658 15.484 22.7542 16.5256 22.7068C17.5652 22.6592 18.2757 22.4946 18.8971 22.2531C19.5392 22.0037 20.0832 21.6692 20.6258 21.126C21.169 20.5832 21.5026 20.0384 21.7529 19.3963C21.993 18.7751 22.1578 18.0652 22.2066 17.026C22.2534 15.9844 22.2656 15.6523 22.2656 13.0001C22.2656 10.3479 22.2534 10.015 22.2066 8.97334C22.1578 7.93369 21.993 7.22412 21.7529 6.60322C21.5026 5.96084 21.169 5.41602 20.6258 4.87314C20.0826 4.32998 19.5394 3.99629 18.8965 3.74717C18.2739 3.50557 17.5639 3.34092 16.5242 3.29336C15.4825 3.246 15.1509 3.23438 12.4979 3.23438H12.5009ZM11.6248 4.99424C11.8849 4.99385 12.175 4.99424 12.5009 4.99424C15.1084 4.99424 15.4174 5.00361 16.4471 5.05039C17.3992 5.09395 17.916 5.25303 18.2603 5.38672C18.716 5.56367 19.0409 5.77529 19.3825 6.11719C19.7243 6.45898 19.9358 6.78447 20.1133 7.24023C20.247 7.58398 20.4063 8.10078 20.4496 9.05293C20.4964 10.0824 20.5065 10.3916 20.5065 12.9979C20.5065 15.6041 20.4964 15.9134 20.4496 16.9428C20.4061 17.8949 20.247 18.4117 20.1133 18.7556C19.9363 19.2113 19.7243 19.5358 19.3825 19.8774C19.0407 20.2192 18.7162 20.4308 18.2603 20.6078C17.9164 20.7421 17.3992 20.9008 16.4471 20.9443C15.4176 20.9911 15.1084 21.0013 12.5009 21.0013C9.89326 21.0013 9.58418 20.9911 8.55478 20.9443C7.60264 20.9004 7.08584 20.7413 6.74131 20.6076C6.28564 20.4306 5.96006 20.219 5.61826 19.8772C5.27646 19.5354 5.06494 19.2107 4.8875 18.7548C4.75381 18.4109 4.59453 17.8941 4.55117 16.942C4.50439 15.9125 4.49502 15.6033 4.49502 12.9954C4.49502 10.3876 4.50439 10.08 4.55117 9.05049C4.59473 8.09834 4.75381 7.58154 4.8875 7.2373C5.06455 6.78154 5.27646 6.45605 5.61836 6.11426C5.96016 5.77246 6.28564 5.56084 6.74141 5.3835C7.08564 5.24922 7.60264 5.09053 8.55478 5.04678C9.45566 5.00605 9.80479 4.99385 11.6248 4.9918V4.99424ZM17.7138 6.61572C17.0668 6.61572 16.5419 7.14014 16.5419 7.78721C16.5419 8.43418 17.0668 8.95908 17.7138 8.95908C18.3607 8.95908 18.8856 8.43418 18.8856 7.78721C18.8856 7.14023 18.3607 6.61533 17.7138 6.61533V6.61572ZM12.5009 7.98496C9.73135 7.98496 7.48584 10.2305 7.48584 13.0001C7.48584 15.7697 9.73135 18.0142 12.5009 18.0142C15.2705 18.0142 17.5152 15.7697 17.5152 13.0001C17.5152 10.2306 15.2703 7.98496 12.5007 7.98496H12.5009ZM12.5009 9.74482C14.2986 9.74482 15.7562 11.2021 15.7562 13.0001C15.7562 14.7979 14.2986 16.2554 12.5009 16.2554C10.703 16.2554 9.2457 14.7979 9.2457 13.0001C9.2457 11.2021 10.703 9.74482 12.5009 9.74482Z" fill="white"/>
<defs>
<radialGradient id="paint0_radial_97_365" cx="0" cy="0" r="1" gradientUnits="userSpaceOnUse" gradientTransform="translate(6.64062 27.4255) rotate(-90) scale(24.7769 23.0444)">
<stop stop-color="#FFDD55"/>
<stop offset="0.1" stop-color="#FFDD55"/>
<stop offset="0.5" stop-color="#FF543E"/>
<stop offset="1" stop-color="#C837AB"/>
</radialGradient>
<radialGradient id="paint1_radial_97_365" cx="0" cy="0" r="1" gradientUnits="userSpaceOnUse" gradientTransform="translate(-4.1876 2.30088) rotate(78.681) scale(11.0754 45.6531)">
<stop stop-color="#3771C8"/>
<stop offset="0.128" stop-color="#3771C8"/>
<stop offset="1" stop-color="#6600FF" stop-opacity="0"/>
</radialGradient>
</defs>
</svg>
