<svg width="27" height="30" viewBox="0 0 27 30" fill="none" xmlns="http://www.w3.org/2000/svg">
<path d="M24.1557 0.500095H2.84426C2.36072 0.495174 1.89497 0.682276 1.54922 1.02035C1.20346 1.35842 1.00594 1.81984 1 2.30337V23.7009C1.00702 24.1837 1.20501 24.6441 1.55065 24.9813C1.89629 25.3185 2.36142 25.505 2.84426 25.5001H24.1557C24.6393 25.5039 25.1047 25.3162 25.4503 24.9779C25.7959 24.6396 25.9935 24.1783 26 23.6948V2.29723C25.9914 1.81511 25.7928 1.35589 25.4475 1.01937C25.1021 0.68285 24.6379 0.496238 24.1557 0.500095Z" fill="#0076B2"/>
<g filter="url(#filter0_d_97_374)">
<path d="M4.70084 9.87109H8.41191V21.8117H4.70084V9.87109ZM6.5574 3.92847C6.98304 3.92847 7.39912 4.05471 7.753 4.29123C8.10688 4.52774 8.38266 4.8639 8.54545 5.25718C8.70824 5.65046 8.75073 6.08319 8.66755 6.50062C8.58436 6.91806 8.37923 7.30144 8.07811 7.60227C7.777 7.9031 7.39342 8.10786 6.97591 8.19065C6.5584 8.27344 6.12571 8.23054 5.73258 8.06737C5.33946 7.90421 5.00356 7.62811 4.76738 7.274C4.5312 6.9199 4.40536 6.5037 4.40576 6.07806C4.40631 5.50776 4.63324 4.96101 5.03669 4.55794C5.44014 4.15488 5.98711 3.92847 6.5574 3.92847ZM10.7398 9.87109H14.2972V11.5104H14.3463C14.8422 10.5719 16.0513 9.58216 17.8566 9.58216C21.6148 9.57396 22.3115 12.0473 22.3115 15.2543V21.8117H18.6004V16.0022C18.6004 14.619 18.5758 12.8383 16.6722 12.8383C14.7685 12.8383 14.4447 14.3465 14.4447 15.9121V21.8117H10.7398V9.87109Z" fill="white"/>
</g>
<defs>
<filter id="filter0_d_97_374" x="0.405762" y="3.92847" width="25.9058" height="25.8833" filterUnits="userSpaceOnUse" color-interpolation-filters="sRGB">
<feFlood flood-opacity="0" result="BackgroundImageFix"/>
<feColorMatrix in="SourceAlpha" type="matrix" values="0 0 0 0 0 0 0 0 0 0 0 0 0 0 0 0 0 0 127 0" result="hardAlpha"/>
<feOffset dy="4"/>
<feGaussianBlur stdDeviation="2"/>
<feComposite in2="hardAlpha" operator="out"/>
<feColorMatrix type="matrix" values="0 0 0 0 0 0 0 0 0 0 0 0 0 0 0 0 0 0 0.25 0"/>
<feBlend mode="normal" in2="BackgroundImageFix" result="effect1_dropShadow_97_374"/>
<feBlend mode="normal" in="SourceGraphic" in2="effect1_dropShadow_97_374" result="shape"/>
</filter>
</defs>
</svg>
