<svg width="60" height="20" viewBox="0 0 60 20" fill="none" xmlns="http://www.w3.org/2000/svg">
<path d="M0.261841 10.8493V8.30886H51.6378C49.2995 6.12965 47.4623 4.02585 47.7258 0.715352C48.2528 0.366043 48.8281 0.516881 49.396 0.5923C49.8525 2.49762 50.3128 4.31959 51.8048 5.67316C53.0519 6.80445 54.5329 7.4078 56.0138 7.75314C57.1236 8.01115 58.3038 8.07864 59.5027 8.49939V11.1351C57.8956 11.4169 56.1994 11.6313 54.544 12.1791C53.6012 12.4887 52.8107 12.8777 52.1203 13.6041C50.7544 15.0357 49.8389 16.8405 49.3737 19.0184H47.8111C47.3695 17.2758 48.1526 15.823 48.7094 14.3583C49.2884 12.8221 50.5058 11.8456 52.3319 10.8493H0.261841Z" fill="#273AAA"/>
</svg>
