<svg width="36" height="33" viewBox="0 0 36 33" fill="none" xmlns="http://www.w3.org/2000/svg">
<path d="M32.4852 26.9153C31.251 28.0417 30.54 28.6905 29.8625 29.3088C26.73 26.4501 23.6042 23.5975 20.1029 20.4022V33H16.7088V20.494C13.1604 23.7322 9.981 26.6337 6.63387 29.6883C5.64114 28.7395 4.27949 28.2804 4.62828 26.7868C7.55282 24.1179 10.4707 21.455 13.3885 18.7984C13.2275 18.6392 13.1671 18.5535 13.0866 18.4984C13.0062 18.4433 12.8988 18.4005 12.7982 18.4005C8.56568 18.4005 4.33985 18.4005 0 18.4005V15.4071H13.5562C13.1805 14.7032 13.0665 14.2318 12.758 13.9441C10.0279 11.4098 7.26439 8.90007 4.35327 6.24951C5.05087 5.53942 5.68139 4.89668 6.24483 4.32127C6.51984 4.32127 6.68083 4.27842 6.7412 4.32739C9.94746 7.14935 13.1403 9.97744 16.3466 12.8178C16.3667 12.8055 16.4606 12.7688 16.521 12.7076C16.588 12.6402 16.6618 12.5423 16.6618 12.4566C16.6685 8.38587 16.6618 4.32127 16.6618 0.232177C17.9564 -0.0983787 19.1168 -0.263657 20.0693 1.07081V12.5301C23.2823 9.59791 26.2202 6.91674 29.0375 4.34575C30.7412 4.10702 31.3181 5.18438 32.3242 6.18217C29.1917 9.18778 25.9117 12.0526 22.5377 15.1929C27.1056 15.5112 31.5059 15.2112 36 15.3826V18.3087H23.0408C26.18 21.1735 29.2789 24.0015 32.4785 26.9215L32.4852 26.9153Z" fill="#FC4D5C"/>
</svg>
