<svg width="25" height="26" viewBox="0 0 25 26" fill="none" xmlns="http://www.w3.org/2000/svg">
<path d="M12.5 0.5C5.59648 0.5 0 6.09658 0 13C0 19.9039 5.59658 25.5 12.5 25.5C19.404 25.5 25 19.9039 25 13C25 6.09707 19.404 0.500684 12.4998 0.500684L12.5 0.5ZM18.2323 18.5287C18.0084 18.8959 17.5277 19.0123 17.1605 18.7869C14.2257 16.9942 10.5312 16.5882 6.18008 17.5823C5.97859 17.6282 5.76715 17.5921 5.59222 17.4821C5.4173 17.3721 5.29322 17.1972 5.24727 16.9957C5.22437 16.896 5.22136 16.7927 5.23843 16.6918C5.25549 16.5909 5.29229 16.4944 5.34672 16.4077C5.40115 16.3211 5.47213 16.246 5.55561 16.1868C5.63909 16.1276 5.73342 16.0855 5.8332 16.0628C10.5949 14.9749 14.6792 15.4433 17.9741 17.4569C18.3413 17.6823 18.4577 18.1615 18.2323 18.5287ZM19.7623 15.1251C19.4801 15.5836 18.8801 15.7284 18.4219 15.4463C15.0619 13.3811 9.94014 12.7829 5.96602 13.9893C5.45059 14.1449 4.90625 13.8545 4.7498 13.3399C4.59453 12.8245 4.88516 12.2812 5.39971 12.1245C9.93926 10.747 15.5828 11.4143 19.4414 13.7854C19.8996 14.0676 20.0444 14.6675 19.7623 15.1251ZM19.8937 11.5809C15.8649 9.18789 9.21816 8.96777 5.37178 10.1354C4.7541 10.3227 4.10088 9.97393 3.91377 9.35625C3.72656 8.73828 4.0749 8.08555 4.69307 7.89775C9.1084 6.55732 16.4486 6.81641 21.0868 9.56992C21.6437 9.89961 21.8257 10.6172 21.4958 11.172C21.1675 11.7276 20.4479 11.9107 19.8942 11.5809H19.8937Z" fill="#1ED760"/>
</svg>
