<svg width="25" height="30" viewBox="0 0 25 30" fill="none" xmlns="http://www.w3.org/2000/svg">
<path d="M18.5278 11.0728C20.3519 12.376 22.5865 13.1428 25 13.1428V8.50111C24.5432 8.5012 24.0877 8.45355 23.6408 8.35891V12.0126C21.2275 12.0126 18.9932 11.2459 17.1687 9.94275V19.4153C17.1687 24.154 13.3253 27.9951 8.58451 27.9951C6.81561 27.9951 5.17142 27.4606 3.80566 26.5439C5.3645 28.137 7.53838 29.1252 9.94333 29.1252C14.6845 29.1252 18.528 25.2841 18.528 20.5452V11.0728H18.5278ZM20.2046 6.38982C19.2724 5.37192 18.6603 4.05645 18.5278 2.60212V2.00513H17.2398C17.5641 3.85352 18.67 5.43266 20.2046 6.38982ZM6.80418 22.9077C6.28336 22.2252 6.00182 21.3901 6.00309 20.5316C6.00309 18.3644 7.76105 16.6071 9.92995 16.6071C10.3341 16.6069 10.7358 16.6689 11.1211 16.791V12.0454C10.6709 11.9838 10.2166 11.9575 9.76247 11.9672V15.6609C9.37703 15.5387 8.97507 15.4767 8.57074 15.4771C6.40193 15.4771 4.64407 17.2342 4.64407 19.4017C4.64407 20.9344 5.5227 22.2612 6.80418 22.9077Z" fill="#FF004F"/>
<path d="M17.1687 9.94265C18.9933 11.2458 21.2274 12.0125 23.6408 12.0125V8.35882C22.2937 8.07199 21.1012 7.36846 20.2046 6.38982C18.6699 5.43257 17.5641 3.85342 17.2398 2.00513H13.8566V20.545C13.8489 22.7064 12.094 24.4564 9.92978 24.4564C8.65455 24.4564 7.52151 23.8489 6.80401 22.9076C5.52272 22.2613 4.64399 20.9343 4.64399 19.4018C4.64399 17.2345 6.40185 15.4772 8.57066 15.4772C8.9862 15.4772 9.38669 15.5418 9.76239 15.661V11.9673C5.10484 12.0635 1.35913 15.8671 1.35913 20.5451C1.35913 22.8803 2.29187 24.9973 3.80578 26.5441C5.17154 27.4606 6.81563 27.9953 8.58462 27.9953C13.3255 27.9953 17.1688 24.1539 17.1688 19.4153L17.1687 9.94265Z" fill="black"/>
<path d="M23.6408 8.3586V7.37088C22.426 7.37272 21.2352 7.0327 20.2046 6.3897C21.1169 7.38798 22.3182 8.0764 23.6408 8.3588M17.2397 2.00491C17.2088 1.82831 17.1851 1.65052 17.1686 1.47199V0.875H12.4972V19.4151C12.4898 21.5763 10.7349 23.3263 8.57055 23.3263C7.95698 23.3272 7.3518 23.1838 6.8039 22.9076C7.5214 23.8488 8.65444 24.4562 9.92967 24.4562C12.0938 24.4562 13.8489 22.7064 13.8565 20.545V2.00501L17.2397 2.00491ZM9.76257 11.9671V10.9154C9.37222 10.8621 8.97869 10.8354 8.58471 10.8355C3.84337 10.8355 0 14.6768 0 19.4151C0 22.3857 1.51049 25.0038 3.80587 26.5438C2.29196 24.997 1.35922 22.88 1.35922 20.5449C1.35922 15.867 5.10483 12.0633 9.76257 11.9671Z" fill="#00F2EA"/>
</svg>
