<svg width="26" height="18" viewBox="0 0 26 18" fill="none" xmlns="http://www.w3.org/2000/svg">
<path d="M24.9483 2.98735C24.8049 2.45742 24.5252 1.97429 24.137 1.58609C23.7488 1.19788 23.2657 0.918138 22.7357 0.774716C20.7957 0.245605 12.9875 0.245605 12.9875 0.245605C12.9875 0.245605 5.179 0.261621 3.23893 0.790732C2.70899 0.934162 2.22587 1.21392 1.83768 1.60214C1.44949 1.99037 1.16978 2.47351 1.02639 3.00346C0.439569 6.45059 0.211928 11.7032 1.04251 15.0125C1.18591 15.5424 1.46563 16.0255 1.85382 16.4137C2.242 16.8019 2.72512 17.0817 3.25505 17.2251C5.19512 17.7542 13.0035 17.7542 13.0035 17.7542C13.0035 17.7542 20.8117 17.7542 22.7517 17.2251C23.2816 17.0817 23.7647 16.8019 24.153 16.4137C24.5412 16.0255 24.8209 15.5424 24.9643 15.0125C25.5833 11.5604 25.774 6.31104 24.9483 2.98735Z" fill="#FF0000"/>
<path d="M10.5022 12.7517L16.9797 8.99987L10.5022 5.24805V12.7517Z" fill="white"/>
</svg>
